<svg width="28" height="36" viewBox="0 0 28 36" fill="none" xmlns="http://www.w3.org/2000/svg">
<path d="M14 0.5C21.5067 0.5 27.5 5.9654 27.5 12.6C27.5 18.1018 24.0961 23.8362 20.6077 28.2511C18.8731 30.4464 17.1373 32.2912 15.8348 33.5872C15.1839 34.235 14.6419 34.7449 14.2635 35.0922C14.1634 35.184 14.0748 35.2645 13.9987 35.3331C13.9228 35.2652 13.8347 35.1858 13.7352 35.0951C13.3568 34.7504 12.8149 34.2441 12.1641 33.6004C10.8618 32.3123 9.12623 30.4772 7.39188 28.2885C3.90447 23.8874 0.5 18.1526 0.5 12.6C0.5 5.9654 6.49328 0.5 14 0.5Z" stroke="#F7946D"/>
<path d="M19.5 13C19.5 16.0376 17.0376 18.5 14 18.5C10.9624 18.5 8.5 16.0376 8.5 13C8.5 9.96243 10.9624 7.5 14 7.5C17.0376 7.5 19.5 9.96243 19.5 13Z" stroke="#F7946D"/>
</svg>
